<?xml version="1.0" encoding="iso-8859-1"?>
<!-- Generator: Adobe Illustrator 19.0.0, SVG Export Plug-In . SVG Version: 6.00 Build 0)  -->
<svg version="1.1" id="Capa_1" xmlns="http://www.w3.org/2000/svg" xmlns:xlink="http://www.w3.org/1999/xlink" x="0px" y="0px"
	 viewBox="0 0 512 512" style="enable-background:new 0 0 512 512;" xml:space="preserve">
<g>
	<g>
		<path d="M507.742,270.989c-12.481-52.617-52.608-93.854-104.723-107.618l-0.003-0.001c-0.492-0.13-0.983-0.257-1.477-0.383
			c-32.83-8.346-60.743-30.36-76.582-60.398c-17-32.238-44.391-58.782-77.13-74.744c-34.698-16.917-73.548-21.59-112.354-13.513
			c-31.245,6.503-59.951,21.602-83.018,43.665c-23.158,22.152-39.444,50.198-47.098,81.11
			C-7.729,191.96,3.422,246.367,35.95,288.378c13.346,17.237,18.108,40.09,12.739,61.135c-2.714,10.639-3.975,21.653-3.747,32.735
			c1.319,64.259,52.633,116.605,116.818,119.171c1.689,0.067,3.372,0.101,5.05,0.101c25.424,0,49.674-7.717,70.42-22.46
			c30.067-21.367,66.33-30.017,102.102-24.358c7.715,1.22,15.615,1.839,23.48,1.839c45.926,0,88.617-20.684,117.128-56.751
			C508.466,363.708,518.599,316.762,507.742,270.989z M456.401,381.181c-22.784,28.822-56.896,45.352-93.588,45.352
			c-6.3,0-12.623-0.495-18.792-1.47c-43.57-6.893-87.67,3.596-124.172,29.537c-16.654,11.835-36.326,17.658-56.89,16.836
			c-48.361-1.933-87.022-41.38-88.016-89.805c-0.172-8.376,0.777-16.687,2.822-24.701c7.638-29.936,0.875-62.43-18.089-86.922
			c-26.878-34.713-36.06-79.796-25.193-123.688C47.22,94.879,89.26,54.602,141.587,43.711c10.247-2.132,20.467-3.168,30.54-3.168
			c52.656,0,101.113,28.305,126.286,76.044c19.793,37.536,54.685,65.048,95.729,75.483c0.405,0.103,0.811,0.208,1.216,0.315
			l-0.003-0.001c41.392,10.931,73.267,43.705,83.187,85.531C487.271,314.704,479.199,352.342,456.401,381.181z"/>
	</g>
</g>
<g>
	<g>
		<path d="M239.989,176.989c-52.394,0-95.02,42.626-95.02,95.02s42.626,95.02,95.02,95.02c52.394,0,95.02-42.626,95.02-95.02
			S292.383,176.989,239.989,176.989z M239.989,337.022c-35.848,0-65.014-29.165-65.014-65.014s29.165-65.014,65.014-65.014
			c35.849,0,65.014,29.165,65.014,65.014S275.837,337.022,239.989,337.022z"/>
	</g>
</g>
<g>
</g>
<g>
</g>
<g>
</g>
<g>
</g>
<g>
</g>
<g>
</g>
<g>
</g>
<g>
</g>
<g>
</g>
<g>
</g>
<g>
</g>
<g>
</g>
<g>
</g>
<g>
</g>
<g>
</g>
</svg>
